<?xml version="1.0" encoding="utf-8"?>
<svg xmlns="http://www.w3.org/2000/svg" viewBox="0 0 1560.9 230.7">
  <path class="st0" d="M98 211v16H0V43h17v168z" style=""/>
  <g fill="#fff">
    <path class="st0" d="m324 120-59-77h-21l69 91 11-14zM325 149l60 78h21l-70-91-11 13z" style="fill: rgb(0, 0, 0);"/>
  </g>
  <path d="M424 0h-20a794 794 0 0 1-178 227h21C320 161 378 84 424 0z" clip-rule="evenodd" fill="#eb661b" fill-rule="evenodd"/>
  <g fill="#fff">
    <path class="st0" d="M508 135c0-52 43-95 95-95 25 0 49 11 66 28l-9 9a79 79 0 0 0-57-24c-44 0-81 38-81 82 0 45 37 83 81 83 22 0 42-10 57-25l9 10a94 94 0 0 1-66 28c-52 0-95-44-95-96zM828 182H720l-20 45h-15l82-184h14l82 184h-15zm-6-13L774 60l-48 109zM893 43h76c38 0 66 24 66 57s-28 58-66 58h-63v69h-13V43zm74 102c32 0 54-18 54-45 0-26-22-44-54-44h-61v89zM1065 43h13v184h-13zM1177 56h-66V43h145v13h-65v171h-14zM1401 182h-108l-20 45h-15l82-184h14l82 184h-15zm-6-13-48-109-48 109zM1561 214v13h-98V43h13v171z" style="fill: rgb(0, 0, 0);"/>
  </g>
  <path class="st0" d="M138 43H62v16h76c48 0 81 32 81 76 0 45-33 77-81 77h-17v16h17c58 0 98-39 98-93s-40-92-98-92z" style=""/>
</svg>