<?xml version="1.0" encoding="utf-8"?>
<svg xmlns="http://www.w3.org/2000/svg" viewBox="-0.872 0 1561.772 230.7">
  <defs>
    <radialGradient gradientUnits="userSpaceOnUse" cx="1034.5" cy="135.5" r="526.5" id="gradient-0" gradientTransform="matrix(1, 0, 0, 1, 0, -2)">
      <stop offset="0" style="stop-color: #bada55"/>
      <stop offset="1" style="stop-color: #758d29"/>
    </radialGradient>
  </defs>
  <path class="st0" d="M 86.2 232 L -0.872 231 L -0.872 37 L 26.128 37 L 26.128 205 L 86.2 204.7 L 86.2 231.384" style="fill: rgb(255, 255, 255);"/>
  <g fill="#fff" transform="matrix(1, 0, 0, 1, 6.104078, 0)">
    <path class="st0" style="" d="M 307.698 129.103 L 321.609 113.062 L 267.468 38 L 233.934 38 L 307.698 129.103 Z M 344.905 138.504 L 329.913 154.082 L 382.538 232 L 416.154 232 L 344.905 138.504 Z"/>
  </g>
  <path d="M 237.541 214.232 C 305.671 153.949 358.933 88.102 403.409 6.276 L 406.223 1.104 L 437.799 1.104 L 429.485 15.542 C 383.99 94.505 329.622 164.539 257.027 228.585 L 254.169 231.104 L 218.485 231.104 L 237.541 214.232 Z" clip-rule="evenodd" fill="#eb661b" fill-rule="evenodd"/>
  <g fill="#fff">
    <path class="st0" d="M 503 133 C 503 105.969 514.591 80.338 532.464 62.464 C 550.338 44.591 575.969 33 603 33 C 629.042 33 654.809 44.96 672.536 62.464 L 676.093 65.978 L 659.91 82.161 L 656.411 78.481 C 642.286 63.631 623.493 55.725 603 56 C 582.062 55.763 563.706 64.626 549.565 79.006 C 535.421 93.389 527 112.028 527 133 C 527 154.482 535.434 173.379 549.58 187.884 C 563.716 202.38 582.062 210.128 603 210.128 C 623.882 210.128 642.114 201.996 656.464 187.464 L 660.169 183.713 L 675.891 201.182 L 672.561 204.51 C 654.32 222.743 627.915 230.938 602.128 231.384 C 575.077 231.153 550.305 222.135 532.439 204.01 C 514.576 185.888 503 160.022 503 133 Z M 824.751 185 L 723.249 185 L 703.249 230 L 677.298 230 L 763.754 36 L 784.246 36 L 870.702 230 L 844.751 230 L 824.751 185 Z M 814.335 162 L 774 70.406 L 733.665 162 L 814.335 162 Z M 969 36 C 988.854 36.151 1007.09 42.634 1019.51 53.337 C 1032.01 64.102 1040 80.398 1040 98 C 1040 115.587 1032.04 132.107 1019.56 143.123 C 1007.15 154.083 988.886 160.838 969 161 L 911 161 L 911 230 L 888 230 L 888 36 L 969 36 Z M 967 138 C 982.209 138.128 994.006 134.073 1002.81 126.776 C 1011.52 119.557 1016 110.402 1016 98 C 1016 86.118 1011.54 77.226 1002.84 70.124 C 994.026 62.935 982.209 58.872 967 59 L 911 59 L 911 138 L 967 138 Z M 1083 36 L 1083 230 L 1060 230 L 1060 36 L 1083 36 Z M 1172 59 L 1106 59 L 1106 36 L 1261 36 L 1261 59 L 1196 59 L 1196 230 L 1172 230 L 1172 59 Z M 1397.75 185 L 1296.25 185 L 1276.25 230 L 1250.3 230 L 1336.75 36 L 1357.25 36 L 1443.7 230 L 1417.75 230 L 1397.75 185 Z M 1387.34 162 L 1347 70.406 L 1306.66 162 L 1387.34 162 Z M 1566 230 L 1458 230 L 1458 36 L 1481 36 L 1481 207 L 1566 207 L 1566 230 Z" style="stroke-width: 0px; stroke-miterlimit: 1; stroke-dashoffset: 100px; stroke: url(&quot;#gradient-0&quot;);"/>
  </g>
  <path class="st0" d="M 241 133 C 241 161.004 229.839 185.958 212.179 203.389 C 194.044 220.248 167.971 230.811 138 231 L 116 231 L 116 205 L 137.964 205 C 161.099 205.161 179.821 197.937 193.081 184.726 C 206.872 172.105 214 154.535 214 133 C 214 111.975 206.814 94.595 193.027 82.097 C 179.752 69.005 161.133 61.838 138 62 L 57 62 L 57 36 L 137.971 36 C 167.919 36.181 194.066 46.536 212.211 63.14 C 229.876 80.328 241 104.986 241 133 Z" style="fill: rgb(255, 255, 255);"/>
</svg>